# xmcd
#
# Track frame offsets:
#	150
#	25000
#	41987
#	59147
#	82272
#	112230
#	121182
#	132325
#	150152
#	165760
#
# Disc length: 2513 seconds
#
# Revision: 2
# Processed by: cddbd v1.5.2PL0 Copyright (c) Steve Scherf et al.
# Submitted via: EasyCDDAExtractor 11.1.0.1
#
DISCID=8109cf0a
DTITLE=Furry Lewis - Good Morning Judge
DYEAR=1962
DGENRE=Blues
TTITLE0=Goog Morning Judge
TTITLE1=Worried Blues
TTITLE2=Blues Around My Bed
TTITLE3=Why Don't You Come Home Blues
TTITLE4=Don't You Wish Your Mama
TTITLE5=Furry Lewis Rag
TTITLE6=Roll And Tumble Blues
TTITLE7=Old Hobo
TTITLE8=Farewell I'm Growing Old
TTITLE9=Furry Lewis's Careless Love
EXTD=
EXTT0=
EXTT1=
EXTT2=
EXTT3=
EXTT4=
EXTT5=
EXTT6=
EXTT7=
EXTT8=
EXTT9=
PLAYORDER=
